<svg xmlns="http://www.w3.org/2000/svg" width="1082" height="280" viewBox="0 0 1082 280"><g transform="translate(0,0)"><g><line x1="165" y1="60" x2="55" y2="215" stroke="#999" stroke-width="2"/><line x1="55" y1="215" x2="275" y2="215" stroke="#999" stroke-width="2"/><line x1="165" y1="60" x2="275" y2="215" stroke="#999" stroke-width="2"/><circle cx="165" cy="60" r="42" fill="#90caf9" stroke="#555" stroke-width="1.5"/><text x="165" y="72" font-size="28" text-anchor="middle" font-family="Noto Serif CJK SC">1</text><circle cx="55" cy="215" r="42" fill="#90caf9" stroke="#555" stroke-width="1.5"/><text x="55" y="227" font-size="28" text-anchor="middle" font-family="Noto Serif CJK SC">2</text><circle cx="275" cy="215" r="42" fill="#edeae2" stroke="#555" stroke-width="1.5"/><text x="275" y="227" font-size="28" text-anchor="middle" font-family="Noto Serif CJK SC">3</text><text x="165.0" y="272" font-size="14" fill="#333" text-anchor="middle" font-family="Noto Serif CJK SC">步1：BFS 染色中（1蓝 2蓝 3未定）</text></g></g><g stroke="#999" stroke-width="2"><line x1="345.0" y1="140.0" x2="361.0" y2="140.0"/><path d="M361.0,140.0 l-7,-4 v8 z" fill="#999"/></g><g transform="translate(376,0)"><g><line x1="165" y1="60" x2="55" y2="215" stroke="#999" stroke-width="2"/><line x1="55" y1="215" x2="275" y2="215" stroke="#999" stroke-width="2"/><line x1="165" y1="60" x2="275" y2="215" stroke="#c62828" stroke-width="3" stroke-dasharray="10 6"/><circle cx="165" cy="60" r="42" fill="#a5d6a7" stroke="#c62828" stroke-width="3"/><text x="165" y="72" font-size="28" text-anchor="middle" font-family="Noto Serif CJK SC">1</text><circle cx="55" cy="215" r="42" fill="#90caf9" stroke="#555" stroke-width="1.5"/><text x="55" y="227" font-size="28" text-anchor="middle" font-family="Noto Serif CJK SC">2</text><circle cx="275" cy="215" r="42" fill="#a5d6a7" stroke="#c62828" stroke-width="3"/><text x="275" y="227" font-size="28" text-anchor="middle" font-family="Noto Serif CJK SC">3</text><text x="165.0" y="272" font-size="14" fill="#333" text-anchor="middle" font-family="Noto Serif CJK SC">步2：1 与 3 同色 → 冲突边（红）</text></g></g><g stroke="#999" stroke-width="2"><line x1="721.0" y1="140.0" x2="737.0" y2="140.0"/><path d="M737.0,140.0 l-7,-4 v8 z" fill="#999"/></g><g transform="translate(752,0)"><g><line x1="165" y1="60" x2="55" y2="215" stroke="#ff8f00" stroke-width="3" stroke-dasharray="10 6"/><line x1="55" y1="215" x2="275" y2="215" stroke="#ff8f00" stroke-width="3" stroke-dasharray="10 6"/><line x1="165" y1="60" x2="275" y2="215" stroke="#c62828" stroke-width="3" stroke-dasharray="10 6"/><circle cx="165" cy="60" r="42" fill="#a5d6a7" stroke="#c62828" stroke-width="3"/><text x="165" y="72" font-size="28" text-anchor="middle" font-family="Noto Serif CJK SC">1</text><circle cx="55" cy="215" r="42" fill="#90caf9" stroke="#555" stroke-width="1.5"/><text x="55" y="227" font-size="28" text-anchor="middle" font-family="Noto Serif CJK SC">2</text><circle cx="275" cy="215" r="42" fill="#a5d6a7" stroke="#c62828" stroke-width="3"/><text x="275" y="227" font-size="28" text-anchor="middle" font-family="Noto Serif CJK SC">3</text><text x="165.0" y="272" font-size="14" fill="#333" text-anchor="middle" font-family="Noto Serif CJK SC">步3：冲突边+路径拼环 1-2-3（橙）长3 奇</text></g></g></svg>